<svg width="77" height="11" viewBox="0 0 77 11" fill="none" xmlns="http://www.w3.org/2000/svg">
<path d="M0.660511 10V1.27273H4.29972C4.95313 1.27273 5.5 1.36506 5.94034 1.54972C6.38352 1.73437 6.71591 1.9929 6.9375 2.32528C7.16193 2.65767 7.27415 3.04261 7.27415 3.48011C7.27415 3.8125 7.20455 4.10938 7.06534 4.37074C6.92614 4.62926 6.73438 4.84375 6.49006 5.0142C6.24574 5.18466 5.96307 5.30398 5.64205 5.37216V5.45739C5.99432 5.47443 6.3196 5.5696 6.6179 5.7429C6.91903 5.91619 7.16051 6.15767 7.34233 6.46733C7.52415 6.77415 7.61506 7.13778 7.61506 7.55824C7.61506 8.02699 7.49574 8.44602 7.2571 8.81534C7.01847 9.18182 6.6733 9.47159 6.22159 9.68466C5.76989 9.89489 5.22159 10 4.5767 10H0.660511ZM2.76989 8.29972H4.07386C4.53125 8.29972 4.8679 8.21307 5.08381 8.03977C5.30256 7.86648 5.41193 7.625 5.41193 7.31534C5.41193 7.09091 5.35938 6.89773 5.25426 6.7358C5.14915 6.57102 5 6.4446 4.80682 6.35653C4.61364 6.26562 4.3821 6.22017 4.11222 6.22017H2.76989V8.29972ZM2.76989 4.8608H3.9375C4.16761 4.8608 4.37216 4.82244 4.55114 4.74574C4.73011 4.66903 4.86932 4.55824 4.96875 4.41335C5.07102 4.26847 5.12216 4.09375 5.12216 3.8892C5.12216 3.59659 5.01847 3.36648 4.81108 3.19886C4.60369 3.03125 4.32386 2.94744 3.97159 2.94744H2.76989V4.8608ZM31.3754 10V1.27273H35.0146C35.668 1.27273 36.2148 1.36506 36.6552 1.54972C37.0984 1.73437 37.4308 1.9929 37.6523 2.32528C37.8768 2.65767 37.989 3.04261 37.989 3.48011C37.989 3.8125 37.9194 4.10938 37.7802 4.37074C37.641 4.62926 37.4492 4.84375 37.2049 5.0142C36.9606 5.18466 36.6779 5.30398 36.3569 5.37216V5.45739C36.7092 5.47443 37.0344 5.5696 37.3327 5.7429C37.6339 5.91619 37.8754 6.15767 38.0572 6.46733C38.239 6.77415 38.3299 7.13778 38.3299 7.55824C38.3299 8.02699 38.2106 8.44602 37.9719 8.81534C37.7333 9.18182 37.3881 9.47159 36.9364 9.68466C36.4847 9.89489 35.9364 10 35.2915 10H31.3754ZM33.4847 8.29972H34.7887C35.2461 8.29972 35.5827 8.21307 35.7987 8.03977C36.0174 7.86648 36.1268 7.625 36.1268 7.31534C36.1268 7.09091 36.0742 6.89773 35.9691 6.7358C35.864 6.57102 35.7148 6.4446 35.5217 6.35653C35.3285 6.26562 35.0969 6.22017 34.8271 6.22017H33.4847V8.29972ZM33.4847 4.8608H34.6523C34.8825 4.8608 35.087 4.82244 35.266 4.74574C35.445 4.66903 35.5842 4.55824 35.6836 4.41335C35.7859 4.26847 35.837 4.09375 35.837 3.8892C35.837 3.59659 35.7333 3.36648 35.5259 3.19886C35.3185 3.03125 35.0387 2.94744 34.6864 2.94744H33.4847V4.8608Z" fill="#D90303"/>
<path d="M8.62926 10V3.45455H10.6534V4.64773H10.7216C10.8409 4.21591 11.0355 3.89489 11.3054 3.68466C11.5753 3.47159 11.8892 3.36506 12.2472 3.36506C12.3438 3.36506 12.4432 3.37216 12.5455 3.38636C12.6477 3.39773 12.7429 3.41619 12.831 3.44176V5.25284C12.7315 5.21875 12.6009 5.19176 12.4389 5.17188C12.2798 5.15199 12.1378 5.14205 12.0128 5.14205C11.7656 5.14205 11.5426 5.19744 11.3438 5.30824C11.1477 5.41619 10.9929 5.56818 10.8793 5.7642C10.7685 5.95739 10.7131 6.18466 10.7131 6.44602V10H8.62926ZM13.68 10V3.45455H15.7638V10H13.68ZM14.7241 2.69176C14.4315 2.69176 14.18 2.59517 13.9698 2.40199C13.7596 2.20597 13.6545 1.97017 13.6545 1.6946C13.6545 1.42187 13.7596 1.18892 13.9698 0.995739C14.18 0.799716 14.4315 0.701704 14.7241 0.701704C15.0195 0.701704 15.271 0.799716 15.4783 0.995739C15.6886 1.18892 15.7937 1.42187 15.7937 1.6946C15.7937 1.97017 15.6886 2.20597 15.4783 2.40199C15.271 2.59517 15.0195 2.69176 14.7241 2.69176ZM20.1456 10.1236C19.4553 10.1236 18.8629 9.98153 18.3686 9.69744C17.8771 9.41335 17.4993 9.01847 17.2351 8.51278C16.9709 8.00426 16.8388 7.41619 16.8388 6.74858C16.8388 6.07812 16.9709 5.49006 17.2351 4.98438C17.5021 4.47585 17.8814 4.07955 18.3729 3.79545C18.8672 3.51136 19.4567 3.36932 20.1413 3.36932C20.7464 3.36932 21.2734 3.47869 21.7223 3.69744C22.174 3.91619 22.5263 4.22585 22.7791 4.62642C23.0348 5.02415 23.1697 5.49148 23.1839 6.02841H21.2365C21.1967 5.69318 21.0831 5.4304 20.8956 5.24006C20.7109 5.04972 20.4695 4.95455 20.1712 4.95455C19.9297 4.95455 19.718 5.02273 19.5362 5.15909C19.3544 5.29261 19.2124 5.49148 19.1101 5.75568C19.0107 6.01705 18.9609 6.34091 18.9609 6.72727C18.9609 7.11364 19.0107 7.44034 19.1101 7.70739C19.2124 7.97159 19.3544 8.17187 19.5362 8.30824C19.718 8.44176 19.9297 8.50852 20.1712 8.50852C20.3643 8.50852 20.5348 8.46733 20.6825 8.38494C20.8331 8.30256 20.9567 8.18182 21.0533 8.02273C21.1499 7.8608 21.2109 7.66477 21.2365 7.43466H23.1839C23.1641 7.97443 23.0291 8.44602 22.7791 8.84943C22.532 9.25284 22.1839 9.56676 21.7351 9.79119C21.2891 10.0128 20.7592 10.1236 20.1456 10.1236ZM26.1296 8.28267L26.1381 5.7983H26.4279L28.2688 3.45455H30.6296L27.8938 6.8125H27.3441L26.1296 8.28267ZM24.2504 10V1.27273H26.3342V10H24.2504ZM28.3157 10L26.6026 7.28125L27.9748 5.80256L30.7234 10H28.3157ZM39.3441 10V3.45455H41.3683V4.64773H41.4364C41.5558 4.21591 41.7504 3.89489 42.0202 3.68466C42.2901 3.47159 42.604 3.36506 42.962 3.36506C43.0586 3.36506 43.158 3.37216 43.2603 3.38636C43.3626 3.39773 43.4577 3.41619 43.5458 3.44176V5.25284C43.4464 5.21875 43.3157 5.19176 43.1538 5.17188C42.9947 5.15199 42.8526 5.14205 42.7276 5.14205C42.4805 5.14205 42.2575 5.19744 42.0586 5.30824C41.8626 5.41619 41.7077 5.56818 41.5941 5.7642C41.4833 5.95739 41.4279 6.18466 41.4279 6.44602V10H39.3441ZM47.1147 10.1236C46.43 10.1236 45.8391 9.98864 45.342 9.71875C44.8477 9.44602 44.467 9.05824 44.1999 8.5554C43.9357 8.04972 43.8036 7.44886 43.8036 6.75284C43.8036 6.0767 43.9371 5.4858 44.2042 4.98011C44.4712 4.47159 44.8477 4.0767 45.3335 3.79545C45.8192 3.51136 46.3917 3.36932 47.0508 3.36932C47.5167 3.36932 47.9428 3.44176 48.3292 3.58665C48.7156 3.73153 49.0494 3.94602 49.3306 4.23011C49.6119 4.5142 49.8306 4.86506 49.9869 5.28267C50.1431 5.69744 50.2212 6.1733 50.2212 6.71023V7.23011H44.5323V6.01989H48.2823C48.2795 5.7983 48.2269 5.60085 48.1246 5.42756C48.0224 5.25426 47.8817 5.11932 47.7028 5.02273C47.5266 4.9233 47.3235 4.87358 47.0934 4.87358C46.8604 4.87358 46.6516 4.92614 46.467 5.03125C46.2823 5.13352 46.136 5.27415 46.0281 5.45312C45.9201 5.62926 45.8633 5.82955 45.8576 6.05398V7.28551C45.8576 7.55256 45.9102 7.78693 46.0153 7.98864C46.1204 8.1875 46.2695 8.34233 46.4627 8.45312C46.6559 8.56392 46.886 8.61932 47.1531 8.61932C47.3377 8.61932 47.5053 8.59375 47.6559 8.54261C47.8065 8.49148 47.9357 8.41619 48.0437 8.31676C48.1516 8.21733 48.2326 8.09517 48.2866 7.95028L50.1999 8.00568C50.1204 8.43466 49.9457 8.80824 49.6758 9.12642C49.4087 9.44176 49.0579 9.6875 48.6232 9.86364C48.1886 10.0369 47.6857 10.1236 47.1147 10.1236ZM53.1307 10.1108C52.7131 10.1108 52.3423 10.0412 52.0185 9.90199C51.6974 9.75994 51.4432 9.54687 51.2557 9.26278C51.071 8.97585 50.9787 8.61648 50.9787 8.18466C50.9787 7.82102 51.0426 7.5142 51.1705 7.2642C51.2983 7.0142 51.4744 6.81108 51.6989 6.65483C51.9233 6.49858 52.1818 6.38068 52.4744 6.30114C52.767 6.21875 53.0795 6.16335 53.4119 6.13494C53.7841 6.10085 54.0838 6.06534 54.3111 6.02841C54.5384 5.98864 54.7031 5.93324 54.8054 5.86222C54.9105 5.78835 54.9631 5.68466 54.9631 5.55114V5.52983C54.9631 5.31108 54.8878 5.14205 54.7372 5.02273C54.5866 4.90341 54.3835 4.84375 54.1278 4.84375C53.8523 4.84375 53.6307 4.90341 53.4631 5.02273C53.2955 5.14205 53.1889 5.30682 53.1435 5.51705L51.2216 5.44886C51.2784 5.05114 51.4247 4.69602 51.6605 4.38352C51.8991 4.06818 52.2259 3.82102 52.6406 3.64205C53.0582 3.46023 53.5597 3.36932 54.1449 3.36932C54.5625 3.36932 54.9474 3.41903 55.2997 3.51847C55.652 3.61506 55.9588 3.7571 56.2202 3.9446C56.4815 4.12926 56.6832 4.35653 56.8253 4.62642C56.9702 4.89631 57.0426 5.20455 57.0426 5.55114V10H55.0824V9.08807H55.0312C54.9148 9.30966 54.7656 9.49716 54.5838 9.65057C54.4048 9.80398 54.1932 9.91903 53.9489 9.99574C53.7074 10.0724 53.4347 10.1108 53.1307 10.1108ZM53.7741 8.74716C53.9986 8.74716 54.2003 8.7017 54.3793 8.6108C54.5611 8.51989 54.706 8.39489 54.8139 8.2358C54.9219 8.07386 54.9759 7.88636 54.9759 7.6733V7.05114C54.9162 7.08239 54.8438 7.1108 54.7585 7.13636C54.6761 7.16193 54.5852 7.18608 54.4858 7.20881C54.3864 7.23153 54.2841 7.25142 54.179 7.26847C54.0739 7.28551 53.973 7.30114 53.8764 7.31534C53.6804 7.34659 53.5128 7.39489 53.3736 7.46023C53.2372 7.52557 53.1321 7.6108 53.0582 7.71591C52.9872 7.81818 52.9517 7.94034 52.9517 8.08239C52.9517 8.2983 53.0284 8.46307 53.1818 8.5767C53.3381 8.69034 53.5355 8.74716 53.7741 8.74716ZM60.196 8.28267L60.2045 5.7983H60.4943L62.3352 3.45455H64.696L61.9602 6.8125H61.4105L60.196 8.28267ZM58.3168 10V1.27273H60.4006V10H58.3168ZM62.3821 10L60.669 7.28125L62.0412 5.80256L64.7898 10H62.3821ZM68.2319 10.1236C67.5472 10.1236 66.9563 9.98864 66.4592 9.71875C65.9648 9.44602 65.5842 9.05824 65.3171 8.5554C65.0529 8.04972 64.9208 7.44886 64.9208 6.75284C64.9208 6.0767 65.0543 5.4858 65.3214 4.98011C65.5884 4.47159 65.9648 4.0767 66.4506 3.79545C66.9364 3.51136 67.5089 3.36932 68.168 3.36932C68.6339 3.36932 69.06 3.44176 69.4464 3.58665C69.8327 3.73153 70.1665 3.94602 70.4478 4.23011C70.729 4.5142 70.9478 4.86506 71.104 5.28267C71.2603 5.69744 71.3384 6.1733 71.3384 6.71023V7.23011H65.6495V6.01989H69.3995C69.3967 5.7983 69.3441 5.60085 69.2418 5.42756C69.1396 5.25426 68.9989 5.11932 68.82 5.02273C68.6438 4.9233 68.4407 4.87358 68.2106 4.87358C67.9776 4.87358 67.7688 4.92614 67.5842 5.03125C67.3995 5.13352 67.2532 5.27415 67.1452 5.45312C67.0373 5.62926 66.9805 5.82955 66.9748 6.05398V7.28551C66.9748 7.55256 67.0273 7.78693 67.1325 7.98864C67.2376 8.1875 67.3867 8.34233 67.5799 8.45312C67.7731 8.56392 68.0032 8.61932 68.2702 8.61932C68.4549 8.61932 68.6225 8.59375 68.7731 8.54261C68.9237 8.49148 69.0529 8.41619 69.1609 8.31676C69.2688 8.21733 69.3498 8.09517 69.4038 7.95028L71.3171 8.00568C71.2376 8.43466 71.0629 8.80824 70.793 9.12642C70.5259 9.44176 70.1751 9.6875 69.7404 9.86364C69.3058 10.0369 68.8029 10.1236 68.2319 10.1236ZM72.4027 10V3.45455H74.4268V4.64773H74.495C74.6143 4.21591 74.8089 3.89489 75.0788 3.68466C75.3487 3.47159 75.6626 3.36506 76.0206 3.36506C76.1172 3.36506 76.2166 3.37216 76.3189 3.38636C76.4212 3.39773 76.5163 3.41619 76.6044 3.44176V5.25284C76.505 5.21875 76.3743 5.19176 76.2124 5.17188C76.0533 5.15199 75.9112 5.14205 75.7862 5.14205C75.5391 5.14205 75.3161 5.19744 75.1172 5.30824C74.9212 5.41619 74.7663 5.56818 74.6527 5.7642C74.5419 5.95739 74.4865 6.18466 74.4865 6.44602V10H72.4027Z" fill="white"/>
</svg>
