<svg width="70" height="11" viewBox="0 0 70 11" fill="none" xmlns="http://www.w3.org/2000/svg">
<path d="M0.660511 10V1.27273H4.29972C4.95313 1.27273 5.5 1.36506 5.94034 1.54972C6.38352 1.73437 6.71591 1.9929 6.9375 2.32528C7.16193 2.65767 7.27415 3.04261 7.27415 3.48011C7.27415 3.8125 7.20455 4.10938 7.06534 4.37074C6.92614 4.62926 6.73438 4.84375 6.49006 5.0142C6.24574 5.18466 5.96307 5.30398 5.64205 5.37216V5.45739C5.99432 5.47443 6.3196 5.5696 6.6179 5.7429C6.91903 5.91619 7.16051 6.15767 7.34233 6.46733C7.52415 6.77415 7.61506 7.13778 7.61506 7.55824C7.61506 8.02699 7.49574 8.44602 7.2571 8.81534C7.01847 9.18182 6.6733 9.47159 6.22159 9.68466C5.76989 9.89489 5.22159 10 4.5767 10H0.660511ZM2.76989 8.29972H4.07386C4.53125 8.29972 4.8679 8.21307 5.08381 8.03977C5.30256 7.86648 5.41193 7.625 5.41193 7.31534C5.41193 7.09091 5.35938 6.89773 5.25426 6.7358C5.14915 6.57102 5 6.4446 4.80682 6.35653C4.61364 6.26562 4.3821 6.22017 4.11222 6.22017H2.76989V8.29972ZM2.76989 4.8608H3.9375C4.16761 4.8608 4.37216 4.82244 4.55114 4.74574C4.73011 4.66903 4.86932 4.55824 4.96875 4.41335C5.07102 4.26847 5.12216 4.09375 5.12216 3.8892C5.12216 3.59659 5.01847 3.36648 4.81108 3.19886C4.60369 3.03125 4.32386 2.94744 3.97159 2.94744H2.76989V4.8608ZM31.3754 10V1.27273H35.0146C35.668 1.27273 36.2148 1.36506 36.6552 1.54972C37.0984 1.73437 37.4308 1.9929 37.6523 2.32528C37.8768 2.65767 37.989 3.04261 37.989 3.48011C37.989 3.8125 37.9194 4.10938 37.7802 4.37074C37.641 4.62926 37.4492 4.84375 37.2049 5.0142C36.9606 5.18466 36.6779 5.30398 36.3569 5.37216V5.45739C36.7092 5.47443 37.0344 5.5696 37.3327 5.7429C37.6339 5.91619 37.8754 6.15767 38.0572 6.46733C38.239 6.77415 38.3299 7.13778 38.3299 7.55824C38.3299 8.02699 38.2106 8.44602 37.9719 8.81534C37.7333 9.18182 37.3881 9.47159 36.9364 9.68466C36.4847 9.89489 35.9364 10 35.2915 10H31.3754ZM33.4847 8.29972H34.7887C35.2461 8.29972 35.5827 8.21307 35.7987 8.03977C36.0174 7.86648 36.1268 7.625 36.1268 7.31534C36.1268 7.09091 36.0742 6.89773 35.9691 6.7358C35.864 6.57102 35.7148 6.4446 35.5217 6.35653C35.3285 6.26562 35.0969 6.22017 34.8271 6.22017H33.4847V8.29972ZM33.4847 4.8608H34.6523C34.8825 4.8608 35.087 4.82244 35.266 4.74574C35.445 4.66903 35.5842 4.55824 35.6836 4.41335C35.7859 4.26847 35.837 4.09375 35.837 3.8892C35.837 3.59659 35.7333 3.36648 35.5259 3.19886C35.3185 3.03125 35.0387 2.94744 34.6864 2.94744H33.4847V4.8608Z" fill="#D90303"/>
<path d="M8.62926 10V3.45455H10.6534V4.64773H10.7216C10.8409 4.21591 11.0355 3.89489 11.3054 3.68466C11.5753 3.47159 11.8892 3.36506 12.2472 3.36506C12.3438 3.36506 12.4432 3.37216 12.5455 3.38636C12.6477 3.39773 12.7429 3.41619 12.831 3.44176V5.25284C12.7315 5.21875 12.6009 5.19176 12.4389 5.17188C12.2798 5.15199 12.1378 5.14205 12.0128 5.14205C11.7656 5.14205 11.5426 5.19744 11.3438 5.30824C11.1477 5.41619 10.9929 5.56818 10.8793 5.7642C10.7685 5.95739 10.7131 6.18466 10.7131 6.44602V10H8.62926ZM13.68 10V3.45455H15.7638V10H13.68ZM14.7241 2.69176C14.4315 2.69176 14.18 2.59517 13.9698 2.40199C13.7596 2.20597 13.6545 1.97017 13.6545 1.6946C13.6545 1.42187 13.7596 1.18892 13.9698 0.995739C14.18 0.799716 14.4315 0.701704 14.7241 0.701704C15.0195 0.701704 15.271 0.799716 15.4783 0.995739C15.6886 1.18892 15.7937 1.42187 15.7937 1.6946C15.7937 1.97017 15.6886 2.20597 15.4783 2.40199C15.271 2.59517 15.0195 2.69176 14.7241 2.69176ZM20.1456 10.1236C19.4553 10.1236 18.8629 9.98153 18.3686 9.69744C17.8771 9.41335 17.4993 9.01847 17.2351 8.51278C16.9709 8.00426 16.8388 7.41619 16.8388 6.74858C16.8388 6.07812 16.9709 5.49006 17.2351 4.98438C17.5021 4.47585 17.8814 4.07955 18.3729 3.79545C18.8672 3.51136 19.4567 3.36932 20.1413 3.36932C20.7464 3.36932 21.2734 3.47869 21.7223 3.69744C22.174 3.91619 22.5263 4.22585 22.7791 4.62642C23.0348 5.02415 23.1697 5.49148 23.1839 6.02841H21.2365C21.1967 5.69318 21.0831 5.4304 20.8956 5.24006C20.7109 5.04972 20.4695 4.95455 20.1712 4.95455C19.9297 4.95455 19.718 5.02273 19.5362 5.15909C19.3544 5.29261 19.2124 5.49148 19.1101 5.75568C19.0107 6.01705 18.9609 6.34091 18.9609 6.72727C18.9609 7.11364 19.0107 7.44034 19.1101 7.70739C19.2124 7.97159 19.3544 8.17187 19.5362 8.30824C19.718 8.44176 19.9297 8.50852 20.1712 8.50852C20.3643 8.50852 20.5348 8.46733 20.6825 8.38494C20.8331 8.30256 20.9567 8.18182 21.0533 8.02273C21.1499 7.8608 21.2109 7.66477 21.2365 7.43466H23.1839C23.1641 7.97443 23.0291 8.44602 22.7791 8.84943C22.532 9.25284 22.1839 9.56676 21.7351 9.79119C21.2891 10.0128 20.7592 10.1236 20.1456 10.1236ZM26.1296 8.28267L26.1381 5.7983H26.4279L28.2688 3.45455H30.6296L27.8938 6.8125H27.3441L26.1296 8.28267ZM24.2504 10V1.27273H26.3342V10H24.2504ZM28.3157 10L26.6026 7.28125L27.9748 5.80256L30.7234 10H28.3157ZM39.3441 10V3.45455H41.3683V4.64773H41.4364C41.5558 4.21591 41.7504 3.89489 42.0202 3.68466C42.2901 3.47159 42.604 3.36506 42.962 3.36506C43.0586 3.36506 43.158 3.37216 43.2603 3.38636C43.3626 3.39773 43.4577 3.41619 43.5458 3.44176V5.25284C43.4464 5.21875 43.3157 5.19176 43.1538 5.17188C42.9947 5.15199 42.8526 5.14205 42.7276 5.14205C42.4805 5.14205 42.2575 5.19744 42.0586 5.30824C41.8626 5.41619 41.7077 5.56818 41.5941 5.7642C41.4833 5.95739 41.4279 6.18466 41.4279 6.44602V10H39.3441ZM45.994 10.1108C45.5763 10.1108 45.2056 10.0412 44.8817 9.90199C44.5607 9.75994 44.3065 9.54687 44.119 9.26278C43.9343 8.97585 43.842 8.61648 43.842 8.18466C43.842 7.82102 43.9059 7.5142 44.0337 7.2642C44.1616 7.0142 44.3377 6.81108 44.5621 6.65483C44.7866 6.49858 45.0451 6.38068 45.3377 6.30114C45.6303 6.21875 45.9428 6.16335 46.2752 6.13494C46.6474 6.10085 46.9471 6.06534 47.1744 6.02841C47.4016 5.98864 47.5664 5.93324 47.6687 5.86222C47.7738 5.78835 47.8263 5.68466 47.8263 5.55114V5.52983C47.8263 5.31108 47.7511 5.14205 47.6005 5.02273C47.4499 4.90341 47.2468 4.84375 46.9911 4.84375C46.7156 4.84375 46.494 4.90341 46.3263 5.02273C46.1587 5.14205 46.0522 5.30682 46.0067 5.51705L44.0849 5.44886C44.1417 5.05114 44.288 4.69602 44.5238 4.38352C44.7624 4.06818 45.0891 3.82102 45.5039 3.64205C45.9215 3.46023 46.4229 3.36932 47.0082 3.36932C47.4258 3.36932 47.8107 3.41903 48.163 3.51847C48.5153 3.61506 48.8221 3.7571 49.0835 3.9446C49.3448 4.12926 49.5465 4.35653 49.6886 4.62642C49.8335 4.89631 49.9059 5.20455 49.9059 5.55114V10H47.9457V9.08807H47.8945C47.7781 9.30966 47.6289 9.49716 47.4471 9.65057C47.2681 9.80398 47.0565 9.91903 46.8121 9.99574C46.5707 10.0724 46.2979 10.1108 45.994 10.1108ZM46.6374 8.74716C46.8619 8.74716 47.0636 8.7017 47.2425 8.6108C47.4244 8.51989 47.5692 8.39489 47.6772 8.2358C47.7852 8.07386 47.8391 7.88636 47.8391 7.6733V7.05114C47.7795 7.08239 47.707 7.1108 47.6218 7.13636C47.5394 7.16193 47.4485 7.18608 47.3491 7.20881C47.2496 7.23153 47.1474 7.25142 47.0423 7.26847C46.9371 7.28551 46.8363 7.30114 46.7397 7.31534C46.5437 7.34659 46.3761 7.39489 46.2369 7.46023C46.1005 7.52557 45.9954 7.6108 45.9215 7.71591C45.8505 7.81818 45.815 7.94034 45.815 8.08239C45.815 8.2983 45.8917 8.46307 46.0451 8.5767C46.2013 8.69034 46.3988 8.74716 46.6374 8.74716ZM53.0593 8.28267L53.0678 5.7983H53.3576L55.1985 3.45455H57.5593L54.8235 6.8125H54.2738L53.0593 8.28267ZM51.18 10V1.27273H53.2638V10H51.18ZM55.2454 10L53.5323 7.28125L54.9045 5.80256L57.6531 10H55.2454ZM61.0952 10.1236C60.4105 10.1236 59.8196 9.98864 59.3224 9.71875C58.8281 9.44602 58.4474 9.05824 58.1804 8.5554C57.9162 8.04972 57.7841 7.44886 57.7841 6.75284C57.7841 6.0767 57.9176 5.4858 58.1847 4.98011C58.4517 4.47159 58.8281 4.0767 59.3139 3.79545C59.7997 3.51136 60.3722 3.36932 61.0312 3.36932C61.4972 3.36932 61.9233 3.44176 62.3097 3.58665C62.696 3.73153 63.0298 3.94602 63.3111 4.23011C63.5923 4.5142 63.8111 4.86506 63.9673 5.28267C64.1236 5.69744 64.2017 6.1733 64.2017 6.71023V7.23011H58.5128V6.01989H62.2628C62.2599 5.7983 62.2074 5.60085 62.1051 5.42756C62.0028 5.25426 61.8622 5.11932 61.6832 5.02273C61.5071 4.9233 61.304 4.87358 61.0739 4.87358C60.8409 4.87358 60.6321 4.92614 60.4474 5.03125C60.2628 5.13352 60.1165 5.27415 60.0085 5.45312C59.9006 5.62926 59.8438 5.82955 59.8381 6.05398V7.28551C59.8381 7.55256 59.8906 7.78693 59.9957 7.98864C60.1009 8.1875 60.25 8.34233 60.4432 8.45312C60.6364 8.56392 60.8665 8.61932 61.1335 8.61932C61.3182 8.61932 61.4858 8.59375 61.6364 8.54261C61.7869 8.49148 61.9162 8.41619 62.0241 8.31676C62.1321 8.21733 62.2131 8.09517 62.267 7.95028L64.1804 8.00568C64.1009 8.43466 63.9261 8.80824 63.6562 9.12642C63.3892 9.44176 63.0384 9.6875 62.6037 9.86364C62.169 10.0369 61.6662 10.1236 61.0952 10.1236ZM65.266 10V3.45455H67.2901V4.64773H67.3583C67.4776 4.21591 67.6722 3.89489 67.9421 3.68466C68.212 3.47159 68.5259 3.36506 68.8839 3.36506C68.9805 3.36506 69.0799 3.37216 69.1822 3.38636C69.2844 3.39773 69.3796 3.41619 69.4677 3.44176V5.25284C69.3683 5.21875 69.2376 5.19176 69.0756 5.17188C68.9165 5.15199 68.7745 5.14205 68.6495 5.14205C68.4023 5.14205 68.1793 5.19744 67.9805 5.30824C67.7844 5.41619 67.6296 5.56818 67.516 5.7642C67.4052 5.95739 67.3498 6.18466 67.3498 6.44602V10H65.266Z" fill="white"/>
</svg>
